<svg xmlns="http://www.w3.org/2000/svg" width="4280" height="2700" viewBox="0 0 4280 2700">
  <defs>
    <style>
      .cls-1 {
        fill: #141e48;
      }

      .cls-1, .cls-2 {
        fill-rule: evenodd;
      }

      .cls-2 {
        fill: #162e96;
      }
    </style>
  </defs>
  <path id="Lower_backside_Arrow" data-name="Lower backside Arrow" class="cls-1" d="M2294,1391c169.69-3.08,339.8,62.62,409,160,37.22,52.37,55.37,140.05,21,213-61.38,130.26-150.86,155.27-311,185-31.13,5.78-63.13,7.29-97,13l-21,3-299-172v-1c185.27,1.98,372.57-7.08,475-89,52.9-42.31,68.31-137.22,23-201-28.49-40.1-73.87-70.74-123-90-14.55-5.71-70.16-13.33-79-20C2292.67,1391.67,2293.33,1391.33,2294,1391Zm-485,399q63,1.005,126,2,152.49,87.99,305,176v2q-53.49,4.005-107,8-108.495-62.49-217-125C1896.62,1841.36,1817.45,1803.9,1809,1790Z"/>
  <path id="Upper_backside_Arrow" data-name="Upper backside Arrow" class="cls-1" d="M2131,320l109,8c-0.67,1-1.33,2-2,3q-151.98,87.491-304,175l-125,1c0.67-1,1.33-2,2-3Q1970.99,412.01,2131,320Zm162,13c41.96-.211,85.02,8.771,123,16,39.19,7.458,75.03,9.4,110,21,119.14,39.507,193.06,102.784,216,239,9.77,58.041-15.98,105.385-37,135-56.09,79.008-143.09,110.725-248,142-34.82,10.38-75.15,16.968-116,21-11.57,1.142-40.62,3.322-48-2v-1h2l64-14c54.55-18.582,102.53-51.032,134-93,12.42-16.554,18.22-35.47,24-59,23.7-96.551-44.26-155.344-105-182-57.64-25.294-126.08-31.257-199-43l-84-5-133-3c0.67-.333,1.33-0.667,2-1Q2145.48,418.509,2293,333Z"/>
  <path id="Frontside_Arrow" data-name="Frontside Arrow" class="cls-2" d="M2711,511c11.15,10.818,14.76,29.261,20,46,18.54,59.18,37.34,139.935,18,214-45.32,173.579-146.23,267.66-304,329-42.48,16.51-90.66,28.83-138,38-19.62,3.8-84.91,4.87-96,13,0.33,0.67.67,1.33,1,2,65.97-.18,133.34,18.38,186,35,169.81,53.59,271.11,126.62,334,287,33.43,85.26,30.77,169.35,3,257-6.48,20.45-10.09,45.85-24,59,9.01-29.52,18.88-62.01,25-98,2.91-17.13-2.62-34.69-6-47-16.08-58.57-39.41-97.68-82-129-136.16-100.13-301.8-122-537-122l-301,3q64.5,140.985,129,282l-492-404q-57.495-47.49-115-95c-11.21-8.81-39.46-23.45-31-36q318.975-261.474,638-523-46.5,101.99-93,204c-8.33,19-34.84,60.682-35,79,282.1,0.418,599.63,23.569,780-83,65.66-38.795,111.48-74.26,136-155,4.58-15.068,12.72-36.555,9-58C2729.77,573.022,2720.19,540.507,2711,511Z"/>
  <path id="Upper_Text" data-name="Upper Text" class="cls-1" d="M2535,2152c139.85-2.58,146.62,181.4,24,202-70.49,11.84-129.11-59.64-110-128,8.3-29.68,29.43-54.58,56-66Q2520,2156,2535,2152Zm460,136v-37h98c2.46,131.38-168.71,132.27-197,29-31.78-116.04,125.19-170.29,183-92v3q-12.495,12-25,24c-14.04-5.29-22.27-19.28-39-24-43.63-12.3-76.65,18.39-83,51-14.13,72.54,89.52,98.84,117,46h-54ZM991,2157c24.62-.62,54.91-2.67,74,4,39.88,13.93,39.78,54.41,15,83,32.57,10.2,40.62,58.24,19,86-18.24,23.42-65.88,19.78-108,19V2157Zm182,0c41.77-.99,87.47-3.55,105,20,22.84,30.68,6.36,76.97-24,86l43,86h-42q-21.495-40.5-43-81h-1v81h-38V2157Zm179,0h106v37h-68v32h68v37h-68v49h68v37H1352V2157Zm221,0h40q36.495,95.985,73,192-20.505-.495-41-1-7.005-19.5-14-39h-75q-7.995,19.995-16,40h-40Q1536.5,2253.015,1573,2157Zm166,0h39v61q24.99-30.495,50-61h44v4q-32.49,40.5-65,81,27.495,40.5,55,81c5.55,8.21,14.21,15.26,17,26h-45q-27.495-40.5-55-81h-1v81h-39V2157Zm172,0h107v37h-34v155h-39V2194h-34v-37Zm157,0h38v72h62v-72h39v192h-39v-83h-62v83h-38V2157Zm209,0c41.77-.99,87.47-3.55,105,20,22.84,30.68,6.36,76.97-24,86l43,86h-42q-21.495-40.5-43-81h-1v81h-38V2157Zm426,0h39v103q1.005,21,2,42c2.86,7.06,10.88,13.33,19,15,14.74,3.02,27.74-7.04,31-16q1.005-22.005,2-44V2157h38c0.98,84.2,19.83,183.96-54,197C2681.29,2371.43,2702.17,2239.45,2703,2157Zm448,0h38v72h62v-72h39v192h-39v-83h-62v83h-38V2157Zm-612,32c-25.57,10.71-44.3,17.14-52,45-12.3,44.5,21.21,91.21,67,83C2628.86,2303.58,2625.34,2187.22,2539,2189Zm-1510,5v38c19.32,0.92,31.36-4.24,32-22C1054.36,2197.38,1049.05,2193.3,1029,2194Zm182,0v37c16.2,0.53,28-.9,37-7C1256.6,2198.4,1238.41,2192.73,1211,2194Zm1104,0v37c16.2,0.53,28-.9,37-7C2360.6,2198.4,2342.41,2192.73,2315,2194Zm-722,18q-11.505,30-23,60h46Q1604.5,2242,1593,2212Zm-564,54v46c16.28,0.72,35.34.1,41-10C1092.21,2279.69,1051.1,2264.9,1029,2266Z"/>
  <path id="Lower_Text" data-name="Lower Text" class="cls-1" d="M1769,2444v-9h35c-2.82,51.74-69.65,51.71-81,12-14.13-49.47,52.51-69.64,76-38v2c-2,1.67-4,3.33-6,5-8.4-4.18-14.12-11.09-25-13-19.55-3.43-41.06,16.1-36,37,7.38,30.45,50.14,33.97,61,4h-24Zm509,0v-9h35c-2.82,51.74-69.65,51.71-81,12-14.13-49.47,52.51-69.64,76-38v2c-2,1.67-4,3.33-6,5-8.4-4.18-14.12-11.09-25-13-19.55-3.43-41.06,16.1-36,37,7.38,30.45,50.14,33.97,61,4h-24Zm489-50c13.86-.62,23.24,3.68,26,14q-4.5,1.995-9,4c-3.22-6.25-7.81-9.55-16-8l-5,5v5c11.48,14.76,31,18.79,31,45-7.76,17.95-41.84,23.58-45-2,1-.67,2-1.33,3-2,1.67-.67,3.33-1.33,5-2,3.2,6.79,7.01,11.88,16,13,3.67-1.69,5.99-2.5,8-6,1-2.67,2-5.33,3-8-11.13-15.45-35.79-23.4-29-50Q2761,2398,2767,2394Zm134,0c13.86-.62,23.24,3.68,26,14q-4.5,1.995-9,4c-3.22-6.25-7.81-9.55-16-8l-5,5v5c11.48,14.76,31,18.79,31,45-7.76,17.95-41.84,23.58-45-2,1-.67,2-1.33,3-2,1.67-.67,3.33-1.33,5-2,3.2,6.79,7.01,11.88,16,13,3.67-1.69,5.99-2.5,8-6,1-2.67,2-5.33,3-8-11.13-15.45-35.79-23.4-29-50Q2895,2398,2901,2394Zm-1782,2h45v9h-35v22h35v9h-35v28h35v9h-45v-77Zm111,0h10v68h28v9h-38v-77Zm59,0h45v9h-35v22h35v9h-35v28h35v9h-45v-77Zm94,0c7.38,1.69,37.29,65.39,39,77h-10q-5.505-12.495-11-25h-31q-5.505,12.495-11,25h-10v-3Zm60,0c21.6-.81,41.9-2.1,48,13,6,18.54-6.45,29.06-23,29,7.6,10.89,21.09,21.46,25,35h-10c-10.73-8.89-16.93-29.47-30-35v35h-10v-77Zm124,0h10v77h-4q-22.995-27-46-54h-1v54h-10v-77h4q23.505,27,47,54v-54Zm36,0h10v77h-10v-77Zm86,0h10v77h-4q-22.995-27-46-54h-1v54h-10v-77h4q23.505,27,47,54v-54Zm260,77c-3.33-.33-6.67-0.67-10-1q-3.495-24.495-7-49v2q-12.495,24-25,48h-4q-11.505-24.495-23-49h-2q-3,24.495-6,49h-9q4.995-38.49,10-77h4q14.505,29.49,29,59h1q13.5-29.49,27-59h4v2Q1943.505,2435.5,1949,2473Zm51-77c7.38,1.69,37.29,65.39,39,77h-10q-5.505-12.495-11-25h-31q-5.505,12.495-11,25h-10v-3Zm110,0h10v77h-4q-22.995-27-46-54h-1v54h-10v-77h4q23.505,27,47,54v-54Zm65,0c7.38,1.69,37.29,65.39,39,77h-10q-5.505-12.495-11-25h-31q-5.505,12.495-11,25h-10v-3Zm161,0h45v9h-35v22h35v9h-35v28h35v9h-45v-77Zm149,77c-3.33-.33-6.67-0.67-10-1q-3.495-24.495-7-49v2q-12.495,24-25,48h-4q-11.505-24.495-23-49h-2q-3,24.495-6,49h-9q4.995-38.49,10-77h4q14.505,29.49,29,59h1q13.5-29.49,27-59h4v2Q2479.505,2435.5,2485,2473Zm23-77h45v9h-35v22h35v9h-35v28h35v9h-45v-77Zm117,0h10v77h-4q-22.995-27-46-54h-1v54h-10v-77h4q23.505,27,47,54v-54Zm30,0h43v9h-17v68h-10v-68h-16v-9Zm191,77h-10v-37q-12-19.995-24-40h11q8.505,14.505,17,29c1-.67,2-1.33,3-2l15-27h11c-3.66,15.87-18.56,25.83-23,40v37Zm99-77h43v9h-17v68h-10v-68h-16v-9Zm62,0h45v9h-35v22h35v9h-35v28h35v9h-45v-77Zm149,77c-3.33-.33-6.67-0.67-10-1q-3.495-24.495-7-49v2q-12.495,24-25,48h-4q-11.505-24.495-23-49h-2q-3,24.495-6,49h-9q4.995-38.49,10-77h4q14.505,29.49,29,59h1q13.5-29.49,27-59h4v2Q3150.505,2435.5,3156,2473Zm-1703-68v24q12-1.005,24-2c1.67-2,3.33-4,5-6-0.33-2.67-.67-5.33-1-8-1.65-3.65-2.39-4.31-6-6C1470.04,2404.41,1460.77,2404.79,1453,2405Zm-68,11q-4.995,11.505-10,23h21v-1Q1390.5,2427.005,1385,2416Zm617,0q-4.995,11.505-10,23h21v-1Q2007.5,2427.005,2002,2416Zm175,0q-4.995,11.505-10,23h21v-1Q2182.5,2427.005,2177,2416Zm-998,23h30v9h-30v-9Z"/>
</svg>
