<svg xmlns="http://www.w3.org/2000/svg" width="4280" height="2700" viewBox="0 0 4280 2700">
  <defs>
    <style>
      .cls-1 {
        fill: #141e48;
      }

      .cls-1, .cls-2 {
        fill-rule: evenodd;
      }

      .cls-2 {
        fill: #162e96;
      }
    </style>
  </defs>
  <path id="Upperback_arrow" data-name="Upperback arrow" class="cls-1" d="M2370.42,959.124c272.04,4.724,527.66-92.971,634.48-252.428,47.32-70.637,78.76-203.7,36.96-306.3-81.66-200.485-227.74-243.637-458.92-293.986-49.68-10.821-107.21-12.8-161.7-23.088l-49.28-7.7q-229.44,133.127-458.92,266.28c285.12-2.929,553.1,10.616,717.64,127.753,69.78,49.677,119.89,164.148,73.92,275.516-35.28,85.471-121.82,145.27-207.9,180.085C2470.23,935.968,2384.31,941.168,2370.42,959.124ZM1625.06,344.986l195.58-3.079Q2054.7,205.7,2288.8,69.47V67.931L2122.48,55.617q-169.38,98.5-338.8,197.017C1738.1,279.37,1655.13,305.506,1625.06,344.986Z"/>
  <path id="Lowerback_arrow_" data-name="Lowerback arrow " class="cls-1" d="M2372.2,1712.16c271.97-4.73,527.54,93,634.34,252.52,47.31,70.66,78.74,203.77,36.95,306.42-81.64,200.56-227.69,243.73-458.82,294.1-49.67,10.82-107.19,12.8-161.66,23.09q-24.645,3.855-49.27,7.7-229.395-133.17-458.83-266.38c285.06,2.93,552.99-10.62,717.49-127.8,69.76-49.7,119.86-164.21,73.9-275.62-35.27-85.51-121.79-145.33-207.85-180.16C2471.98,1735.32,2386.08,1730.12,2372.2,1712.16ZM1627,2326.53q97.755,1.545,195.53,3.08,234.015,136.26,468.06,272.54v1.54q-83.13,6.165-166.28,12.32l-338.73-197.09C1740.01,2392.17,1657.07,2366.02,1627,2326.53Z"/>
  <path id="Front_Arrow" data-name="Front Arrow" class="cls-2" d="M1632.75,959.268c470.66,0.649,956.49,35.949,1243.87-155.483,80.88-53.876,133.96-110.5,166.26-213.982,6.66-21.329,20.88-48.7,15.4-80.051-9.52-54.42-29.22-103.217-38.49-153.944q3.075,2.308,6.16,4.618c21.42,55.45,39.63,117.332,53.88,181.654,25.2,113.762-3.38,231.1-36.95,312.506-84.65,205.294-228.71,324-435.66,406.414-65.74,26.18-140.55,43.23-215.52,58.5-47.82,9.73-104.18,1.16-143.17,18.47,0.51,1.03,1.03,2.05,1.54,3.08,109.6-2.43,200.07,27.49,283.26,53.88,267.36,84.83,420.98,198.96,520.33,452.59,45.36,115.8,38.65,263.37,1.54,381.79-9.82,31.33-12.54,72.56-35.41,90.82,8.96-50.91,29.19-99.29,38.49-153.94,4.7-27.68-7.85-54.43-13.86-73.89-34.17-110.75-84.1-167.96-172.42-223.22-305.68-191.27-758.9-151.04-1240.78-150.87q98.505,216.27,197.04,432.58-377.115-310.155-754.32-620.39-88.515-73.11-177.037-146.25c-13.112-10-54.965-26.66-52.341-49.26,1.205-10.38,54.2-47.33,64.656-55.42q89.279-73.11,178.572-146.25,370.2-304,740.47-608.074-68.49,152.39-137.01,304.809C1673.59,870.223,1636.27,908.762,1632.75,959.268Z"/>
</svg>
